<svg xmlns="http://www.w3.org/2000/svg" width="333.4" height="400.136" viewBox="0 0 333.4 400.136">
  <g id="android" transform="translate(-89.3 -55.864)">
    <path id="Path_1" data-name="Path 1" d="M297.7,306a25.009,25.009,0,0,0-25,25V431a25,25,0,0,0,50,0V331A25.009,25.009,0,0,0,297.7,306Z" fill="#101d36"/>
    <path id="Path_2" data-name="Path 2" d="M297.7,451.8a25.009,25.009,0,0,1-25-25V431a25,25,0,0,0,50,0v-4.2A25.009,25.009,0,0,1,297.7,451.8Z" fill="#101d36" opacity="0.1"/>
    <path id="Path_3" data-name="Path 3" d="M214.3,306a25.009,25.009,0,0,0-25,25V431a25,25,0,0,0,50,0V331A25.009,25.009,0,0,0,214.3,306Z" fill="#101d36"/>
    <path id="Path_4" data-name="Path 4" d="M214.3,451.8a25.009,25.009,0,0,1-25-25V431a25,25,0,0,0,50,0v-4.2A25.009,25.009,0,0,1,214.3,451.8Z" fill="#101d36" opacity="0.1"/>
    <path id="Path_5" data-name="Path 5" d="M356,189.3H156v150a33.289,33.289,0,0,0,33.3,33.3H322.6a33.289,33.289,0,0,0,33.3-33.3v-150Z" fill="#101d36"/>
    <path id="Path_6" data-name="Path 6" d="M397.7,189.3a25.009,25.009,0,0,0-25,25v100a25,25,0,0,0,50,0v-100A25.009,25.009,0,0,0,397.7,189.3Z" fill="#101d36"/>
    <path id="Path_7" data-name="Path 7" d="M208.1,102.8a8.417,8.417,0,0,1-7.1-3.9L182.2,68.7a8.353,8.353,0,1,1,14.2-8.8l18.8,30.2a8.418,8.418,0,0,1-2.7,11.5A8.834,8.834,0,0,1,208.1,102.8Z" fill="#101d36"/>
    <path id="Path_8" data-name="Path 8" d="M303.9,102.8a8.033,8.033,0,0,1-4.4-1.3A8.4,8.4,0,0,1,296.8,90l18.8-30.2a8.353,8.353,0,0,1,14.2,8.8L311,98.9A8.191,8.191,0,0,1,303.9,102.8Z" fill="#101d36"/>
    <path id="Path_9" data-name="Path 9" d="M256,72.7a100.036,100.036,0,0,0-100,100H356A99.972,99.972,0,0,0,256,72.7Z" fill="#101d36"/>
    <rect id="Rectangle_1" data-name="Rectangle 1" width="200" height="4.2" transform="translate(156 189.3)" fill="#101d36" opacity="0.2"/>
    <path id="Path_10" data-name="Path 10" d="M322.7,368.5H189.3A33.289,33.289,0,0,1,156,335.2v4.2a33.289,33.289,0,0,0,33.3,33.3H322.6a33.289,33.289,0,0,0,33.3-33.3v-4.2A33.14,33.14,0,0,1,322.7,368.5Z" fill="#101d36" opacity="0.1"/>
    <path id="Path_11" data-name="Path 11" d="M397.7,189.3a25.009,25.009,0,0,0-25,25v4.2a25,25,0,0,1,50,0v-4.2A25.009,25.009,0,0,0,397.7,189.3Z" fill="#101d36" opacity="0.2"/>
    <path id="Path_12" data-name="Path 12" d="M397.7,335.2a25.009,25.009,0,0,1-25-25v4.2a25,25,0,0,0,50,0v-4.2A25.009,25.009,0,0,1,397.7,335.2Z" fill="#101d36" opacity="0.1"/>
    <path id="Path_13" data-name="Path 13" d="M256,76.8c41.9,0,77.8,24.3,93.3,59.9a100.052,100.052,0,0,0-186.7.1C178.2,101.2,214.1,76.8,256,76.8Z" fill="#101d36" opacity="0.2"/>
    <circle id="Ellipse_1" data-name="Ellipse 1" cx="8.3" cy="8.3" r="8.3" transform="translate(206 122.7)" fill="#101d36"/>
    <circle id="Ellipse_2" data-name="Ellipse 2" cx="8.3" cy="8.3" r="8.3" transform="translate(289.4 122.7)" fill="#101d36"/>
    <path id="Path_14" data-name="Path 14" d="M156.2,168.5c-.1,1.4-.2,2.8-.2,4.2H356c0-1.4-.2-2.8-.2-4.2Z" fill="#101d36" opacity="0.1"/>
    <path id="Path_15" data-name="Path 15" d="M114.3,189.3a25.009,25.009,0,0,0-25,25v100a25,25,0,0,0,50,0v-100A25.009,25.009,0,0,0,114.3,189.3Z" fill="#101d36"/>
    <path id="Path_16" data-name="Path 16" d="M114.3,189.3a25.009,25.009,0,0,0-25,25v4.2a25,25,0,0,1,50,0v-4.2A25.009,25.009,0,0,0,114.3,189.3Z" fill="#101d36" opacity="0.2"/>
    <path id="Path_17" data-name="Path 17" d="M114.3,335.2a25.009,25.009,0,0,1-25-25v4.2a25,25,0,0,0,50,0v-4.2A25.009,25.009,0,0,1,114.3,335.2Z" fill="#101d36" opacity="0.1"/>
    <path id="Path_18" data-name="Path 18" d="M156,339.3a33.289,33.289,0,0,0,33.3,33.3V431a25,25,0,0,0,50,0V372.7h33.3V431a25,25,0,0,0,50,0V372.7a33.289,33.289,0,0,0,33.3-33.3v-150H156Zm241.7-150a25.009,25.009,0,0,0-25,25v100a25,25,0,0,0,50,0v-100A25.009,25.009,0,0,0,397.7,189.3ZM315.2,92.2l14.6-23.4A8.353,8.353,0,0,0,315.6,60L301,83.4a99.15,99.15,0,0,0-90,0L196.4,59.9a8.353,8.353,0,1,0-14.2,8.8l14.6,23.4A99.743,99.743,0,0,0,156,172.6H356A99.7,99.7,0,0,0,315.2,92.2ZM114.3,189.3a25.009,25.009,0,0,0-25,25v100a25,25,0,0,0,50,0v-100A25.009,25.009,0,0,0,114.3,189.3Z" fill="#101d36"/>
  </g>
</svg>
