<svg id="c_sharp" data-name="c sharp" xmlns="http://www.w3.org/2000/svg" width="255.582" height="287.253" viewBox="0 0 255.582 287.253">
  <path id="Path_110" data-name="Path 110" d="M255.569,84.452a25.365,25.365,0,0,0-3.124-12.761,24.4,24.4,0,0,0-9.247-9.008Q192.161,33.255,141.1,3.866c-9.17-5.294-18.061-5.1-27.163.269C100.395,12.122,32.59,50.969,12.385,62.672,4.064,67.489.015,74.861.013,84.443Q-.007,143.626,0,202.808a25.455,25.455,0,0,0,2.988,12.517,24.317,24.317,0,0,0,9.386,9.254c20.206,11.7,88.02,50.547,101.56,58.536,9.106,5.373,18,5.565,27.17.269q51.022-29.46,102.1-58.817a24.326,24.326,0,0,0,9.386-9.252,25.488,25.488,0,0,0,2.987-12.518s0-78.889-.013-118.345" fill="#101d36"/>
  <path id="Path_111" data-name="Path 111" d="M128.182,143.241,2.988,215.325a24.317,24.317,0,0,0,9.386,9.254c20.206,11.7,88.02,50.547,101.56,58.536,9.106,5.373,18,5.565,27.17.269q51.022-29.46,102.1-58.817a24.326,24.326,0,0,0,9.386-9.252L128.182,143.241" fill="#101d36"/>
  <path id="Path_112" data-name="Path 112" d="M255.569,84.452a25.365,25.365,0,0,0-3.124-12.761l-124.263,71.55L252.6,215.315a25.51,25.51,0,0,0,2.987-12.518s0-78.889-.013-118.345" fill="#101d36"/>
  <path id="Path_113" data-name="Path 113" d="M201.892,116.294v13.474h13.474V116.294H222.1v13.474h13.474V136.5H222.1v13.474h13.474v6.737H222.1v13.474h-6.737V156.715H201.892v13.474h-6.737V156.715H181.682v-6.737h13.474V136.5H181.682v-6.737h13.474V116.294ZM215.366,136.5H201.892v13.474h13.474Z" fill="#c9ebfe"/>
  <path id="Path_114" data-name="Path 114" d="M128.457,48.626a94.964,94.964,0,0,1,82.262,47.456l-.16-.273L169.21,119.617A47.28,47.28,0,0,0,129,96.323l-.54,0a47.306,47.306,0,1,0,41.222,70.5l-.2.345,41.286,23.918a94.969,94.969,0,0,1-81.253,47.536l-1.058.006a95,95,0,1,1,0-190Z" fill="#c9ebfe"/>
</svg>
