<svg xmlns="http://www.w3.org/2000/svg" width="448" height="352" viewBox="0 0 448 352">
  <path id="JavaScript" d="M208,88H128V300.5c0,52.58-18.032,67.261-49.412,67.261a119.534,119.534,0,0,1-38.25-6.063L32,423.9c14.7,5.062,37.259,8.1,54.907,8.1C158.955,432,208,398.129,208,301.02Zm174.463-8C305.02,80,256,124,256,182.154c0,50.083,37.751,81.44,92.641,101.665,39.7,14.158,55.392,26.808,55.392,47.539,0,22.756-18.139,37.425-52.448,37.425-31.863,0-60.789-10.64-80.394-21.255v-.021L256,410.727c18.639,10.638,53.441,21.255,91.167,21.255C437.854,431.98,480,383.43,480,326.284c0-48.55-26.958-79.9-85.278-102.163-43.139-17.191-61.27-26.795-61.27-48.542,0-17.2,15.688-32.869,48.043-32.869,31.846,0,53.744,10.707,66.505,17.291l19.125-64C447.125,87.22,420.188,80,382.463,80Z" transform="translate(-32 -80)" fill="#101d36"/>
</svg>
