<svg id="oracle" xmlns="http://www.w3.org/2000/svg" width="512" height="66.559" viewBox="0 0 512 66.559">
  <path id="Path_115" data-name="Path 115" d="M221.034,43.3h33.832L236.977,14.522,204.144,66.559H189.2L229.137,4.051A9.436,9.436,0,0,1,236.977,0a9.26,9.26,0,0,1,7.682,3.946l40.093,62.613H269.809l-7.051-11.628H228.506L221.034,43.3ZM376.251,54.931V.631h-12.68V60.245a6.214,6.214,0,0,0,1.842,4.42,6.479,6.479,0,0,0,4.63,1.894h57.825l7.471-11.628ZM166.472,45.2a22.283,22.283,0,1,0,0-44.566H111V66.559h12.675V12.26H165.63a10.681,10.681,0,0,1,0,21.362l-35.747-.053,37.852,32.99H186.15L160.684,45.2ZM32.969,66.559a32.964,32.964,0,1,1,0-65.928h38.32a32.964,32.964,0,1,1,0,65.928ZM70.437,54.931a21.336,21.336,0,1,0,0-42.671H33.816a21.336,21.336,0,1,0,0,42.671ZM311.218,66.559a32.964,32.964,0,1,1,0-65.928h45.513L349.312,12.26H312.06a21.336,21.336,0,1,0,0,42.671h45.723l-7.471,11.628ZM466.277,54.931a21.308,21.308,0,0,1-20.52-15.522h54.195l7.471-11.628H445.757a21.37,21.37,0,0,1,20.52-15.522h37.2L511,.631H465.435a32.964,32.964,0,1,0,0,65.928h39.094L512,54.931Z" fill="#101d36"/>
</svg>
