<svg xmlns="http://www.w3.org/2000/svg" width="255.384" height="254.054" viewBox="0 0 255.384 254.054">
  <g id="python" transform="translate(-0.145 -0.072)">
    <path id="Path_104" data-name="Path 104" d="M126.916.072c-64.832,0-60.784,28.115-60.784,28.115L66.2,57.315h61.868V66.06H41.631S.145,61.355.145,126.771s36.21,63.1,36.21,63.1h21.61V159.512S56.8,123.3,93.6,123.3h61.362s34.475.557,34.475-33.319V33.97s5.234-33.9-62.518-33.9ZM92.8,19.659a11.13,11.13,0,1,1-11.13,11.13A11.12,11.12,0,0,1,92.8,19.659Z" fill="#101d36"/>
    <path id="Path_105" data-name="Path 105" d="M128.757,254.126c64.832,0,60.784-28.115,60.784-28.115l-.072-29.127H127.6v-8.745h86.442s41.486,4.7,41.486-60.711-36.21-63.1-36.21-63.1h-21.61V94.686s1.165,36.21-35.632,36.21H100.714s-34.475-.557-34.475,33.319v56.014s-5.234,33.9,62.518,33.9Zm34.114-19.587A11.13,11.13,0,1,1,174,223.409a11.12,11.12,0,0,1-11.13,11.13Z" fill="#101d36"/>
  </g>
</svg>
