<svg xmlns="http://www.w3.org/2000/svg" width="1478.202" height="1195.111" viewBox="0 0 1478.202 1195.111">
  <g id="sql" transform="translate(0 0.001)">
    <g id="Group_18" data-name="Group 18" transform="translate(199.451 -82.735)">
      <path id="Path_106" data-name="Path 106" d="M802.73,463.277,639.484,516.583,497.462,579.264l-39.733,10.49C447.61,599.379,437,609.128,425.524,619c-12.586,10.858-24.308,20.73-33.317,27.886a248.519,248.519,0,0,0-32.327,32.08c-11.229,14.066-20.113,29-23.938,40.473-6.787,20.73-3.454,41.706,9.625,61.08,16.781,24.677,50.22,49.848,89.211,67,19.867,8.763,53.306,19.99,78.477,26.282,41.828,10.612,122.774,22.088,167.317,23.817,9.006.37,21.1.37,21.592,0,.988-.619,7.9-13.82,15.92-30.23,27.393-55.9,47.135-108.339,57.869-153.129,6.416-27.145,11.474-63.3,14.8-106.114.865-11.969,1.234-52.071.494-65.646a461.013,461.013,0,0,0-6.168-57.869c-.494-2.592-.619-4.937-.371-5.06.492-.37,1.973-.863,22.086-6.664l-4.07-9.623v0h0Zm-37.264,21.842c1.481,0,5.428,37.88,6.414,61.82.248,5.058.123,8.39-.123,8.39-.986,0-20.853-11.721-35.041-20.6-12.34-7.774-35.783-23.322-39.485-26.283-1.236-.863-1.114-.986,9.006-4.442C723.388,498.2,764.109,485.119,765.466,485.119ZM682.3,512.512c1.111,0,3.947,1.6,10.734,5.8,25.418,15.917,59.969,35.167,74.775,41.584,4.564,1.974,5.057,1.232-5.429,8.391-22.457,15.3-50.469,30.353-84.771,45.53-6.045,2.715-11.1,4.812-11.226,4.812-.246,0,.492-3.083,1.478-6.785,8.268-30.727,12.957-61.82,13.205-86.745.123-12.34.123-12.34,1.234-12.708-.248.123-.125.123,0,.123Zm-17.151,6.539c.738.739.246,28.38-.742,35.906a314.024,314.024,0,0,1-11.35,53.677,82.351,82.351,0,0,1-2.838,8.636c-.5.616-17.4-15.918-22.953-22.334a166.963,166.963,0,0,1-22.7-33.069c-2.838-5.553-7.279-16.41-6.91-16.781,1.974-1.357,67-26.528,67.5-26.035Zm-80.7,31.711a.458.458,0,0,1,.371.123,23.067,23.067,0,0,1,1.852,4.442c3.947,10.735,12.83,26.529,20.482,36.648a208.824,208.824,0,0,0,28.5,30.724c2.963,2.468,5.676,4.812,6.045,5.182.742.741.988.616-19.125,8.268-23.318,8.884-48.738,17.768-77.859,27.145q-10.434,3.364-20.849,6.787c-1.113.371-.742-.247,2.466-5.3,14.436-22.581,36.4-66.878,48.739-98.22,2.1-5.429,4.2-10.858,4.566-12.092a4.452,4.452,0,0,1,2.713-3.209,11.962,11.962,0,0,1,2.1-.493ZM559.775,561c.369.248-5.924,13.449-12.094,25.542-11.969,23.32-25.048,46.273-42.57,74.158-2.961,4.811-5.8,9.255-6.169,9.748-.616.864-.864.616-2.838-3.208a113.141,113.141,0,0,1-9.5-28.628c-1.852-9.625-1.481-26.405.618-36.769,1.6-7.65,1.481-7.526,5.182-9.378,15.794-8.02,66.879-31.958,67.372-31.465Zm212.847,8.639v5.182a671.258,671.258,0,0,1-7.281,92.791c-.74,4.811-1.359,8.759-1.481,8.884,0,0-3.578-.986-7.773-2.222a318.418,318.418,0,0,1-56.76-24.307c-11.971-6.54-29.367-17.277-28.873-17.77.121-.122,5.3-2.837,11.35-6.046a727,727,0,0,0,67.5-39.608c7.527-5.06,18.877-13.2,21.348-15.424l1.974-1.481ZM466.613,606.163c.493,0,.37.987-.37,5.429-.494,3.209-1.11,9.132-1.355,13.2-.99,18.016,1.974,31.343,10.858,49.6a102.5,102.5,0,0,1,4.318,9.377c-.864.741-82.547,24.68-108.214,31.713-7.65,2.1-14.311,3.948-14.808,4.07-.862.248-.986.125-.616-1.974,2.838-18.137,16.658-41.828,35.906-61.818,12.833-13.325,23.075-21.1,40.6-31.095,12.586-7.155,31.958-17.889,33.438-18.384,0-.124.124-.124.247-.124ZM659.1,640.589a49.8,49.8,0,0,1,6.662,3.579c26.406,15.3,63.176,29.491,94.516,36.771l2.84.618-3.949,2.219c-16.41,9.132-70.332,31.588-125.486,52.2-8.022,2.96-15.918,5.923-17.4,6.539a8.9,8.9,0,0,1-2.838.864c0-.125,2.223-4.443,5.058-9.748,15.424-28.873,30.972-64.039,38.869-88.471.99-2.344,1.6-4.441,1.73-4.566Zm-19.619,6.417a35.509,35.509,0,0,1-2.1,5.676c-10.734,26.035-24.8,54.417-42.817,86.251-4.565,8.145-8.39,14.685-8.516,14.685s-3.824-2.223-8.266-4.937c-26.16-16.041-49.357-35.783-64.533-54.909l-2.222-2.715,11.228-3.085c40.226-10.981,74.4-22.826,108.338-37.386C635.411,648.612,639.361,647.006,639.484,647.006Zm121.91,42.57h0c.123,2.838-6.17,28.257-11.353,46.64-4.318,15.424-8.022,27.517-14.806,48.862-2.961,9.38-5.551,17.151-5.676,17.151a8.162,8.162,0,0,1-1.6-.368c-36.646-6.665-69.469-15.919-100.316-28.257-8.639-3.456-20.977-9.009-21.717-9.625-.246-.249,7.158-3.7,16.535-7.774C678.6,731.651,736.839,703.764,756.828,691.8a16.089,16.089,0,0,1,4.566-2.221ZM479.94,699.2c.247.246-15.424,22.827-37.388,53.551-7.65,10.735-16.533,23.32-19.864,28.009s-8.39,12.093-11.229,16.535l-5.185,8.021-5.553-4.689a205.54,205.54,0,0,1-22.949-23.445c-10.612-13.2-17.768-27.145-20.606-39.853-1.358-5.924-1.358-8.887-.125-9.255,1.85-.493,34.8-8.268,65.646-15.426,17.151-3.947,37.016-8.636,44.173-10.363s12.958-3.086,13.081-3.086Zm15.793,6.046,3.947,4.442a231.686,231.686,0,0,0,57.872,47.382c3.949,2.222,6.91,4.2,6.662,4.321-.861.616-76.255,27.389-111.174,39.482-19.618,6.909-35.783,12.462-35.905,12.462a21.22,21.22,0,0,1-2.47-1.6l-2.22-1.6,3.578-5.181c11.6-16.782,26.16-35.166,57.871-73.417l21.839-26.282ZM594.2,775.7c.121-.122,5.551,1.85,12.213,4.321a394.936,394.936,0,0,0,45.779,14.189c20.977,5.307,51.33,10.489,69.223,11.969,2.715.246,4.2.494,3.7.864-.865.494-19,6.54-32.328,10.735-21.225,6.662-86,25.787-138.814,40.965-9.748,2.838-18.139,5.182-18.632,5.3-1.232.248-5.306-.864-5.306-1.358a89.348,89.348,0,0,1,6.54-8.266,732.415,732.415,0,0,0,50.1-67.371c4.071-6.171,7.527-11.23,7.527-11.353Zm-21.719.619c.123.123-8.637,14.189-23.936,38.373-6.541,10.241-13.822,21.84-16.413,25.912-2.468,3.948-6.169,10.119-8.266,13.573l-3.579,6.294-1.85-.494c-4.443-1.234-35.66-12.217-43.928-15.548a305.548,305.548,0,0,1-28.751-13.2c-9.87-5.307-22.208-13.2-21.222-13.449.246-.123,17.151-4.69,37.51-10.241,54.046-14.685,84.029-23.2,103.65-29.367a49.391,49.391,0,0,1,6.786-1.85ZM726.1,812.349h.123c.494,1.235-19.494,56.761-26.777,74.281-1.6,3.948-2.217,4.937-3.082,4.812-2.1-.121-31.094-4.194-48.741-6.785-30.723-4.689-82.3-13.7-95.256-16.658l-2.961-.616,18.383-4.2c39.486-8.884,58.488-13.7,77.736-19.618a549.434,549.434,0,0,0,72.678-28.009,59.565,59.565,0,0,1,7.9-3.209Z" fill="#101d36"/>
      <path id="Path_107" data-name="Path 107" d="M634.425,82.741c-2.715-.368-46.52,15.426-74.775,26.9-38.129,15.549-67.741,30.357-86,43.187-6.785,4.814-15.3,13.327-16.656,16.658a11.534,11.534,0,0,0-.741,4.2l16.535,15.671,39.361,12.586L605.8,218.718,712.9,237.1l1.111-9.254c-.369,0-.617-.123-.984-.123l-14.07-2.222-2.836-5.058c-14.561-25.666-30.6-57.5-39.979-78.971A408.136,408.136,0,0,1,638.127,91.75c-2.1-8.39-2.344-8.884-3.7-9.007v0h0Zm-1.977,6.295h.127c.121.122.615,3.579,1.109,7.648a257.782,257.782,0,0,0,11.969,51.948c4.565,13.574,4.565,12.834-.74,11.229-12.586-3.454-68.975-13.2-109.817-18.878-6.54-.864-12.093-1.727-12.093-1.85-.493-.493,29.49-16.165,42.693-22.333,16.9-7.775,63.3-27.148,66.752-27.764ZM513.5,144.314l4.814,1.6c26.157,8.886,91.923,21.472,128.2,24.433,4.071.37,7.527.741,7.648.741.123.123-3.33,1.974-7.773,4.071-17.52,8.761-36.769,19.5-50.1,27.764-3.947,2.467-7.527,4.442-8.019,4.442s-3.084-.494-5.8-.864l-4.936-.741L565.2,193.668c-21.717-21.1-38.745-37.386-45.286-43.556Zm-4.934,3.824,17.4,21.718c9.5,11.969,19.125,23.69,21.224,26.28s3.824,4.691,3.7,4.814c-.494.37-25.17-4.443-38.252-7.4-13.449-3.086-19-4.566-27.269-7.156l-6.787-2.222V182.44c.123-8.268,10.612-20.606,28.38-33.19l1.6-1.112Zm147.821,29.614c.494,0,1.109,1.11,2.59,4.442,4.2,9.254,17.277,34.18,20.482,38.991.99,1.606,2.715,1.729-14.681-1.11-41.828-6.788-55.279-9.007-55.279-9.254a12.8,12.8,0,0,1,2.838-1.852,240.88,240.88,0,0,0,37.635-26.035c2.838-2.345,5.429-4.566,5.922-4.937.123-.246.371-.369.494-.246Z" fill="#101d36"/>
      <path id="Path_108" data-name="Path 108" d="M457.852,167.757s-2.713,4.32-.122,10.737c1.606,3.947,6.294,8.759,11.6,13.7,0,0,54.908,53.551,61.572,61.2,30.353,35.042,43.556,69.592,44.791,117.221.74,30.6-5.061,57.5-19.5,88.718-25.665,56.02-79.835,117.839-163.37,186.444l12.218-4.072c7.9-5.924,18.632-12.215,43.8-26.035,58.116-31.837,123.513-61.08,203.718-91.187,115.49-43.435,305.391-94.272,413.479-110.8l11.23-1.729-1.729-2.715c-9.869-15.3-16.658-24.8-24.8-34.919-23.689-29.367-52.437-53.18-87.606-72.924-48.369-27.021-110.93-48.121-190.144-63.792-14.93-2.963-47.752-8.638-74.4-12.71-56.514-8.759-93.037-14.806-133.262-21.716-14.435-2.469-36.031-6.17-50.344-9.254a319.734,319.734,0,0,1-32.7-8.761c-8.884-3.457-21.718-6.912-24.432-17.4Zm31.837,30.849a34.4,34.4,0,0,1,4.689,1.481c4.689,1.6,10.734,3.454,17.893,5.429q8.124,2.234,16.287,4.318c7.4,1.85,13.572,3.578,13.695,3.578.865.864,13.328,40.717,17.523,56.017,1.6,5.8,2.838,10.735,2.715,10.735-.127.125-1.482-1.974-3.086-4.811-14.437-25.419-37.264-51.207-63.671-71.938a52.607,52.607,0,0,1-6.045-4.81ZM550.4,215.387a48.472,48.472,0,0,1,6.662,1.11c20.977,4.689,58.612,11.845,82.672,15.918,4.072.616,7.281,1.358,7.281,1.6s-1.482,1.11-3.334,2.1c-4.07,2.1-20.482,11.844-25.91,15.546-13.7,9.131-26.035,19-34.92,27.886-3.578,3.579-6.664,6.54-6.664,6.54s-.738-2.1-1.358-4.69c-4.439-17.151-13.7-42.57-22.086-60.461a52.954,52.954,0,0,1-2.469-5.675c0,.246,0,.123.125.123Zm106.855,20.359c.74.246,1.974,4.442,4.442,13.7a202,202,0,0,1,5.924,56.514c-.248,5.182-.494,9.994-.742,10.612l-.369,1.232-6.416-2.1c-13.2-4.2-34.672-10.49-53.056-15.671-10.49-2.838-19-5.429-19-5.676,0-.741,15.3-16.041,21.84-21.84,12.46-10.983,46.269-37.141,47.38-36.77Zm8.514,1.232c.371-.368,51.084,8.39,74.158,12.833,17.153,3.331,42.076,8.514,43.556,9.132.74.246-1.852,1.726-10.119,5.428-32.574,14.685-56.76,27.886-80.818,43.928-6.293,4.2-11.6,7.65-11.723,7.65a67.323,67.323,0,0,1-.246-7.9c0-23.443-4.689-47.135-13.328-67.124A18.68,18.68,0,0,1,665.765,236.979Zm131.164,25.913c.371.37-1.234,10.365-2.715,16.287-4.442,18.386-16.41,45.657-31.092,71.32a81.337,81.337,0,0,1-5.186,8.39c-.244.123-3.576-1.729-7.4-3.949a401.785,401.785,0,0,0-48.369-23.691c-4.934-2.1-9.254-3.825-9.377-4.07-.865-.741,38.867-27.023,59.844-39.609C769.29,277.452,796.435,262.4,796.929,262.892Zm9.377,1.48c1.111,0,23.569,6.17,35.289,9.625,29,8.638,62.312,20.853,84.029,30.724l9.006,4.073-6.291,1.479c-53.056,12.215-98.465,26.283-142.269,44.051-3.578,1.481-6.787,2.715-7.031,2.715s.986-2.838,2.59-6.294c13.2-28.009,21.717-57.253,23.813-82.179.126-2.345.493-4.195.864-4.195ZM582.724,315.7c.369-.371,17.521,3.7,26.775,6.291,14.066,3.95,43.926,13.943,43.926,14.685,0,.123-3.33,2.961-7.278,6.417-16.164,13.449-31.713,27.637-50.346,45.653-5.553,5.308-10.24,9.626-10.486,9.626s-.369-.742-.248-1.729c2.838-20.73,2.223-47.382-1.726-74.4C582.97,318.786,582.6,315.826,582.724,315.7Zm360.423.371c.244.245-7.9,13.078-13.08,20.357-7.4,10.611-18.264,24.68-42.818,55.528-12.953,16.286-27.516,34.673-32.326,40.842-4.938,6.169-9.008,11.35-9.133,11.35a42.562,42.562,0,0,1-3.453-4.934,254.984,254.984,0,0,0-49.975-55.156c-3.7-3.086-7.771-6.417-9.129-7.4a13.756,13.756,0,0,1-2.469-2.1c0-.369,20.974-9.379,36.894-15.794,27.887-11.353,65.887-24.925,94.393-33.687,14.931-4.688,30.848-9.254,31.1-9.006Zm9.5,2.466c.492-.122,3.455,1.358,7.033,3.454,29.985,17.151,59.35,39.239,82.549,61.944,6.539,6.417,22.7,23.2,22.455,23.321,0,0-5.676.493-12.338.986-51.947,3.95-118.453,14.93-182.371,30.353-4.318.986-8.142,1.85-8.39,1.85s4.566-4.811,10.614-10.61c37.51-36.153,54.662-58.98,74.9-99.7,2.837-6.044,5.306-11.227,5.552-11.6h0ZM677.857,346.675c1.729.368,17.769,7.9,29.861,13.942,11.105,5.551,27.764,14.437,28.627,15.176.123.123-5.8,3.208-13.078,6.787-23.2,11.6-43.064,22.579-63.8,35.165-5.922,3.579-10.858,6.542-10.981,6.542-.494,0-.371-.5,2.961-6.542A257.647,257.647,0,0,0,676.5,349.758c.492-1.85.986-3.083,1.355-3.083Zm-16.041,2.96c.371.371-3.824,15.547-6.414,23.814a303.817,303.817,0,0,1-21.84,50.1c-1.977,3.453-4.937,8.513-6.541,11.35l-3.084,4.936-6.91-6.661c-8.02-7.774-14.561-12.586-22.95-16.906-3.334-1.726-5.924-3.208-5.924-3.453,0-.987,21.1-20.112,37.264-33.932,11.6-10,36.03-29.614,36.4-29.244Zm98.1,40.349,6.047,3.947A469.154,469.154,0,0,1,808.529,425.4c7.031,5.8,20.6,18.016,23.32,20.977l1.478,1.606-9.992,2.837c-56.514,15.669-100.194,29.612-151.154,48.369-5.676,2.1-10.488,3.824-10.859,3.824-.738,0-1.357.616,11.354-11.106,32.576-29.981,61.447-63.052,82.918-95.257l4.32-6.661ZM734.124,396.4c.246.246-16.658,24.06-26.777,37.51-12.092,16.041-33.562,42.94-48.369,60.46-6.168,7.281-11.473,13.327-11.721,13.451-.371.123-.494-1.727-.494-4.566a103.416,103.416,0,0,0-10.488-44.421c-2.838-5.676-3.332-7.033-2.713-7.65,2.344-2.1,38.25-22.581,60.953-34.8,15.3-8.144,39.236-20.235,39.609-19.988ZM578.158,434.652a54.5,54.5,0,0,1,6.418,3.208A135.517,135.517,0,0,1,605.8,452.173c.246.246-2.961,2.838-7.156,5.921-11.723,8.39-29.49,21.841-39.853,30.109-10.861,8.637-11.229,8.884-10,7.033,8.145-12.463,12.215-19.5,16.535-28.5a229.685,229.685,0,0,0,10.363-25.789c.987-3.578,2.221-6.293,2.467-6.293Zm41.584,32.574c.615-.122,1.358.987,4.687,5.924,7.033,10.486,12.463,24.555,13.822,35.906l.244,2.469-16.9,6.54c-30.233,11.721-58.117,23.32-77,31.956-5.3,2.469-14.559,6.91-20.6,9.873-6.047,3.083-10.982,5.428-10.982,5.3s3.824-2.961,8.513-6.417c36.9-26.774,68.853-56.143,92.79-85.509,2.592-3.086,4.937-5.924,5.182-6.047h.248Zm-19.125,4.69c.494.493-13.572,16.41-23.2,26.158a409.254,409.254,0,0,1-76.627,61.821c-3.7,2.344-7.032,4.44-7.4,4.689-.864.493.246-.741,13.079-14.685,8.145-8.761,14.313-16.164,21.347-25.294,4.689-6.045,5.553-6.909,12.34-11.724C558.294,499.8,600.123,471.421,600.616,471.915Z" fill="#101d36"/>
    </g>
    <path id="Path_109" data-name="Path 109" d="M265.747,900.1c-2.276,0-4.553.217-6.809.217-45.975,2.45-76.983,22.683-95.113,62.2-15.506,35.735-13.813,82.446.174,118.4,16.265,35.131,42.547,53.672,86.416,60.675,9.282,1.52,15.506,6.616,33.483,27.606l22.12,25.915h40.118l-26.676-26.892c-14.746-14.745-26.673-27.584-26.673-28.712s5.641-3.6,12.469-5.68c22.51-6.812,41.2-24.2,54.279-50.854,10.583-21.4,12.1-28.018,13.619-54.646,3.969-79.26-37.82-128.813-107.409-128.247l0,.023Zm35.173,207.27c-19.517,9.453-47.857,11.34-66.356,4.553-19.127-7.025-37.646-26.889-45.975-49.377-9.259-24.591-7.937-69.956,2.646-90.386,17.023-32.528,39.534-47.49,72.43-47.49,48.792,0,76.549,29.884,80.171,86.048,2.863,46.885-12.838,82.058-42.895,96.632ZM993.945,967.8c-16.828,0-29.709,6.811-38.385,20.231l-6.809,10.627V971.034H919.628v165.678h29.1v-52.956c0-48.424.6-54.084,7.371-67.335,9.326-18.172,25.371-27.234,40.879-22.9l10.408,3.036V967.848H993.945V967.8Zm-171.1-1.519a83.821,83.821,0,0,0-17.781,2.084c-38.971,10.19-60.938,47.489-59.594,85.873,0,32.139,6.244,48.206,21.752,65.057,31.77,26.065,60.5,28.146,99.275,14.161,6.615-2.819,13.814-6.072,13.814-6.072v-26.065l-13.814,7.156c-31.379,13.661-55.016,13.661-73.949-2.43-12.076-12.3-17.391-27.042-19.84-43.868H890.136v-22.339c0-45.539-27.41-74.294-67.313-73.557h.024Zm-47.492,72.647s4.338-28.407,20.428-39.554a43.911,43.911,0,0,1,25.328-8.11,40.517,40.517,0,0,1,24.592,8.306c14.748,11.341,17.219,39.143,17.219,39.143H775.356v.215h0ZM73.244,1009.051c-31.573-19.128-45.582-32.921-43.869-49.185,4.9-45,60.5-38.773,91.295-21.749l.219-30.272s-17.024-7.373-41.421-7.764c-37.429-.564-61.63,11.709-72.97,36.691-16.656,36.865-1.908,64.665,51.4,95.677,29.925,17.412,43.152,32.528,43.152,49.008,0,34.047-41.05,45.931-83.4,24.57-8.716-4.337-16.09-7.959-16.48-7.959-1.519,9.651-.736,32.745-.736,32.745a180.989,180.989,0,0,0,32.527,9.236c48.4,9.65,92.445-13.054,96.608-49.919,3.622-34.609-8.893-52.761-56.318-81.1l0,.025ZM1251.7,965.9a88.176,88.176,0,0,0-18,2.1c-38.924,10.192-60.85,47.492-59.354,85.876,0,32.095,6.225,48.011,21.729,64.838,31.771,26.089,60.5,28.191,99.473,14.184,6.592-2.818,13.77-6.026,13.77-6.026v-26.109l-13.791,7.2c-31.443,13.619-55.082,13.619-73.947-2.471-12.145-12.274-17.414-26.847-19.865-43.871h117.232v-22.336c0-45.321-27.412-74.1-67.313-73.339l.066-.046Zm-47.492,72.646s4.381-28.365,20.449-39.729a43.682,43.682,0,0,1,25.307-8.132,40.517,40.517,0,0,1,24.594,8.327c14.746,11.342,17.219,39.338,17.219,39.338H1204.23l-.024.2ZM670.4,1009.419c-31.573-19.083-45.54-32.92-43.848-49.185,4.9-45.02,60.5-38.773,91.3-21.749l.218-30.272s-17.024-7.374-41.421-7.722c-37.429-.563-61.63,11.711-72.991,36.692-16.633,36.864-1.692,64.666,51.437,95.677,29.884,17.393,43.111,32.312,43.111,48.792,0,34.047-41.029,46.126-83.381,24.569-8.674-4.337-16.046-7.916-16.48-7.916-1.519,9.649-.736,32.746-.736,32.746a198.1,198.1,0,0,0,32.31,9.237c48.445,9.672,92.51-13.012,96.653-49.877,3.6-34.437-8.891-52.587-56.167-80.952v-.04Zm752.421-42.005c-16.828,0-29.859,6.829-38.383,20.254l-6.811,10.582V970.667H1348.5V1136.3h29.1v-52.954c0-48.4.584-54.085,7.375-67.313,9.324-18.15,25.369-27.235,40.875-22.878l10.408,3.035V967.415h-13.443ZM438.8,1008.464V902.941H409.436v233.728H532.914v-27.6H438.8v-100.6Zm679.015,32.9-24.2,62.975-23.27-63.322L1046.7,970.84h-30.055c19.475,55.212,40.658,111.376,62.02,165.829,9.26.216,18.541,0,27.8,0l32.682-82.058,33.287-83.75H1143.7s-12.688,33.266-25.914,70.521l.021-.022ZM506.455,839.251a16.082,16.082,0,0,0,11.927-4.769,15.819,15.819,0,0,0,4.9-11.711,15.543,15.543,0,0,0-4.9-11.711,16.312,16.312,0,0,0-11.711-4.555,16.09,16.09,0,0,0-11.927,4.728,15.773,15.773,0,0,0-4.727,11.712,15.28,15.28,0,0,0,4.727,11.711,15.931,15.931,0,0,0,11.711,4.553v.042Zm-10.408-26.889a14.855,14.855,0,0,1,25.373,10.409,14.563,14.563,0,0,1-4.337,10.582,14.17,14.17,0,0,1-10.411,4.163,13.825,13.825,0,0,1-10.408-4.163,14.563,14.563,0,0,1-4.337-10.582A13.989,13.989,0,0,1,496.047,812.362Zm7,11.928h1.908c1.346,0,2.668,1.3,3.8,3.773l2.279,5.116h3.577l-2.818-5.683c-1.149-2.275-2.276-3.6-3.6-3.969a6.894,6.894,0,0,0,3.947-2.082,5.207,5.207,0,0,0,1.3-3.795,4.843,4.843,0,0,0-1.69-3.989c-1.3-1.084-3.384-1.669-6.074-1.669h-6.026v21.187h3.035v-8.891l.367,0Zm0-9.846H505.7a6.776,6.776,0,0,1,3.99.953c.716.564.911,1.3.911,2.646,0,2.45-1.52,3.6-4.337,3.6h-3.252v-7.2h.041ZM18.032,822.4c0-7.373-.216-12.858-.39-16.09h.174a48.344,48.344,0,0,0,2.45,8.543l28.19,62.975h4.728l28.19-63.538a57.3,57.3,0,0,0,2.452-7.959h.216c-.563,6.29-.758,11.754-.758,16.112v55.581h9.648V795.4h-12.1L54.919,852.87c-.955,2.276-2.278,5.683-3.969,10.193h-.392a66.207,66.207,0,0,0-3.772-9.8l-25.33-58.053H8.6v82.621h9.281V822.443l.153-.041Zm96.045.154h8.329v51.458h-8.329Zm4.164-18.868a5.872,5.872,0,0,0,4.337-1.734,6.017,6.017,0,0,0,1.91-4.337,5.455,5.455,0,0,0-1.887-4.337,6.072,6.072,0,0,0-4.381-1.737,5.943,5.943,0,0,0-4.338,1.737,6.1,6.1,0,0,0-1.907,4.337,5.222,5.222,0,0,0,1.907,4.337,6.245,6.245,0,0,0,4.338,1.734h.021Zm63.54,71.455v-9.066a23.964,23.964,0,0,1-14.53,5.1c-6.07,0-10.995-2.081-14.6-6.07-3.577-3.947-5.485-9.436-5.485-16.266,0-7.156,1.908-12.84,5.854-17.177a19.049,19.049,0,0,1,14.748-6.245,24.2,24.2,0,0,1,14.009,4.557v-9.65a28.825,28.825,0,0,0-13.619-3.037c-9.456,0-16.827,3.037-22.335,8.894-5.466,5.854-8.285,13.813-8.285,23.42,0,8.543,2.45,15.722,7.548,21.209,5.312,5.637,12.1,8.5,20.428,8.5,6.438-.178,11.707-1.523,16.262-4.167Zm23.831-27.433c0-6.788,1.518-12.273,4.337-16.049,2.647-3.4,5.855-5.116,9.65-5.116,3.21,0,5.486.585,7.155,1.908v-9.846a15,15,0,0,0-5.637-.758,14.384,14.384,0,0,0-9.107,3.253,19.914,19.914,0,0,0-6.4,9.975H205.4V819h-9.433v58.985h9.454V847.71Zm54.279,31.443c8.892,0,16.048-2.863,21.36-8.543,5.29-5.641,7.936-13.229,7.936-22.686,0-9.647-2.427-17.021-7.372-22.51-4.9-5.483-11.711-8.132-20.6-8.132s-16.048,2.647-21.36,7.764c-5.681,5.641-8.674,13.6-8.674,23.813,0,8.891,2.429,16.265,7.548,21.751,5.29,5.68,12.295,8.521,21.165,8.521v.022ZM246.446,831.1q5.4-5.692,14.182-5.683c6.074,0,10.627,1.888,14.01,5.683,3.4,3.969,5.1,9.63,5.1,17.2,0,7.2-1.519,12.859-4.729,16.654-3.208,3.969-7.936,6.071-14.183,6.071-6.071,0-10.777-2.1-14.377-6.071-3.577-3.99-5.291-9.456-5.291-16.654-.368-7.156,1.519-13.01,5.291-17.2Zm84.141,42.916a15.5,15.5,0,0,0,5.509-12.1,14.768,14.768,0,0,0-4.338-10.777c-2.3-2.275-5.854-4.337-10.994-6.419-4.556-1.906-7.374-3.6-8.893-4.923a8.1,8.1,0,0,1-2.45-6.071,7.142,7.142,0,0,1,2.821-5.855,11.654,11.654,0,0,1,7.59-2.253,22.285,22.285,0,0,1,13.443,4.185v-9.456a27.713,27.713,0,0,0-12.686-2.817c-6.071,0-11.189,1.671-14.964,4.9a16.2,16.2,0,0,0-2.083,22.856c2.082,2.256,5.641,4.556,10.583,6.614,4.729,2.083,7.938,3.968,9.65,5.485a7.21,7.21,0,0,1,2.45,5.641c0,5.506-3.772,8.349-11.146,8.349a23.379,23.379,0,0,1-15.333-5.638v10.189a27.886,27.886,0,0,0,14.53,3.6c7.005-.368,12.49-2.081,16.264-5.486l.047-.022Zm45.019-56.73c-8.893,0-16.048,2.647-21.361,7.764-5.638,5.641-8.674,13.6-8.674,23.813,0,8.891,2.452,16.265,7.547,21.751,5.313,5.68,12.3,8.521,21.187,8.521,9.107,0,16.048-2.861,21.36-8.545,5.313-5.637,7.958-13.227,7.958-22.683,0-9.65-2.472-17.022-7.374-22.509-5.115-5.487-11.927-8.133-20.6-8.133l-.042.021ZM393.951,848.3c0,7.2-1.518,12.859-4.727,16.654-3.21,3.969-7.938,6.071-14.184,6.071-6.074,0-10.778-2.1-14.379-6.071-3.577-3.99-5.29-9.456-5.29-16.654,0-7.59,1.888-13.444,5.683-17.393,3.576-3.773,8.306-5.682,14.182-5.682,5.854,0,10.561,1.907,13.964,5.682,3.037,4.163,4.729,9.824,4.729,17.393h.022ZM419.5,877.809h9.433V826.741h13.813V818.8H428.93V809.7c0-8.282,3.208-12.446,9.845-12.446a13.05,13.05,0,0,1,6.2,1.518v-8.521c-1.692-.759-3.969-.932-6.812-.932a17.6,17.6,0,0,0-12.664,4.727c-3.969,3.773-6.071,8.674-6.071,15.312v9.672h-9.978v7.936h9.978v50.876Zm38.75-16.091c0,11.538,5.1,17.414,15.506,17.414,3.774,0,6.614-.606,8.891-1.951v-8.11a9.874,9.874,0,0,1-6.071,1.91c-3.208,0-5.464-.762-6.788-2.475-1.345-1.689-2.1-4.554-2.1-8.5V826.719h14.961v-7.938H467.683v-17.39c-3.253,1.127-6.44,2.082-9.456,3.034V818.78H448.035v7.938h10.192V861.7Zm1014.88,108.73a16.239,16.239,0,0,0-11.709-4.553,16.231,16.231,0,0,0-16.657,16.482,15.464,15.464,0,0,0,4.7,11.709,16.645,16.645,0,0,0,11.928,4.556,16.259,16.259,0,0,0,11.928-4.729A15.975,15.975,0,0,0,1478.2,982.2a16.387,16.387,0,0,0-5.1-11.754Zm-1.517,22.338a15.212,15.212,0,0,1-20.818,0,14.707,14.707,0,0,1-4.338-10.627A14.172,14.172,0,0,1,1461.2,967.63a14.13,14.13,0,0,1,10.41,4.121,14.314,14.314,0,0,1,4.336,10.408A13.607,13.607,0,0,1,1471.611,992.786Zm-8.5-9.651a8.159,8.159,0,0,0,3.969-2.081,5.224,5.224,0,0,0,1.3-3.815,4.828,4.828,0,0,0-1.691-3.969c-1.3-1.085-3.4-1.671-6.07-1.671h-6.029v21.164h3.037v-8.891h1.885c1.3,0,2.6,1.3,3.773,3.773l2.254,5.1h3.6l-2.818-5.683c-.977-2.472-2.1-3.6-3.252-3.97l.037.047Zm-2.082-1.907h-3.252v-7.155h2.668a6.638,6.638,0,0,1,3.969.932c.758.563.932,1.3.932,2.646,0,2.45-1.518,3.579-4.336,3.579l.019,0ZM933.443,816.353h2.646V795.166h7V792.52H926.439v2.646h7.006v21.187Zm16.047-15.917a38.166,38.166,0,0,0-.152-4.705,13.142,13.142,0,0,0,.738,2.45l8.133,18.172h1.3l8.152-18.347c.219-.563.393-1.3.76-2.275-.174,1.887-.174,3.4-.174,4.553v16.048h2.82V792.52h-3.406l-7.371,16.438c-.174.587-.762,1.734-1.129,3.037h-.217a17.275,17.275,0,0,0-1.084-2.818l-7.373-16.655h-3.816v23.854h2.666V800.459l.152-.023Z" fill="#101d36"/>
  </g>
</svg>
