<svg id="swift" xmlns="http://www.w3.org/2000/svg" width="460.119" height="142.936" viewBox="0 0 460.119 142.936">
  <path id="Path_116" data-name="Path 116" d="M142.924,39.589q-.008-2.156-.064-4.312a62.787,62.787,0,0,0-.826-9.386,31.658,31.658,0,0,0-2.943-8.927A30,30,0,0,0,125.975,3.841,31.681,31.681,0,0,0,117.051.9a62.552,62.552,0,0,0-9.392-.826c-1.441-.04-2.876-.058-4.315-.066C101.637,0,99.931,0,98.221,0H44.712C43,0,41.3,0,39.592.009c-1.438.012-2.876.029-4.315.066Q34.1.105,32.923.162A54.351,54.351,0,0,0,25.885.9a32.663,32.663,0,0,0-6.764,1.947A30.029,30.029,0,0,0,3.841,16.961,31.6,31.6,0,0,0,.9,25.888a62.477,62.477,0,0,0-.826,9.386c-.04,1.444-.058,2.879-.066,4.315C0,41.3,0,43.005,0,44.712V98.221c0,1.71,0,3.417.009,5.123.012,1.438.029,2.876.066,4.312A62.723,62.723,0,0,0,.9,117.042a31.682,31.682,0,0,0,2.94,8.933A29.98,29.98,0,0,0,16.964,139.1a31.733,31.733,0,0,0,8.924,2.94,62.448,62.448,0,0,0,9.389.826c1.438.038,2.876.055,4.315.064,1.7.012,3.411.009,5.12.009H98.221c1.7,0,3.414,0,5.12-.009,1.438-.009,2.874-.026,4.312-.064a62.832,62.832,0,0,0,9.392-.826,31.682,31.682,0,0,0,8.924-2.94,29.989,29.989,0,0,0,13.12-13.123,31.726,31.726,0,0,0,2.943-8.927,62.413,62.413,0,0,0,.826-9.389c.038-1.435.055-2.874.064-4.312.012-1.707.009-3.414.009-5.123V44.712c0-1.707,0-3.414-.009-5.123Z" fill="#101d36"/>
  <path id="Path_117" data-name="Path 117" d="M103.879,74.956l-.009-.009c.156-.54.318-1.074.459-1.626,5.932-23.635-8.548-51.58-33.047-66.291C82.02,21.586,86.765,39.214,82.545,54.63a39.668,39.668,0,0,1-1.326,3.98q-1.047-.674-2.143-1.268S54.7,42.3,28.289,15.677C27.6,14.978,42.373,36.8,59.147,54.52c-7.9-4.433-29.925-20.459-43.866-33.218a63.244,63.244,0,0,0,5.99,8.257C32.912,44.323,48.1,62.54,66.286,76.53c-12.779,7.821-30.838,8.427-48.819.009a73.757,73.757,0,0,1-12.5-7.457,74.857,74.857,0,0,0,33.6,28.808c17.016,7.312,33.934,6.816,46.534.121l-.009.014c.058-.038.13-.075.191-.116.517-.274,1.031-.56,1.531-.858,6.056-3.142,18.015-6.33,24.432,6.157,1.574,3.058,4.915-13.14-7.364-28.25Z" transform="translate(9.38 13.273)" fill="#c9ebfe"/>
  <path id="Path_118" data-name="Path 118" d="M76.733,77.975c1.118,9.914,10.576,16.415,23.71,16.415,12.479,0,21.478-6.5,21.478-15.5,0-7.749-5.453-12.479-18-15.63l-12.15-3.09C74.3,55.841,66.423,47.957,66.423,34.955c0-16.026,13.989-27.124,33.891-27.124,19.306,0,33.033,11.165,33.5,27.257H121c-.985-9.854-9-15.9-21.016-15.9-11.89,0-20.164,6.108-20.164,15.038,0,6.96,5.123,11.1,17.732,14.319l10.117,2.628c19.572,4.794,27.583,12.413,27.583,26.139,0,17.472-13.859,28.438-35.927,28.438-20.49,0-34.48-10.9-35.531-27.783H76.733Zm139.872,26.2H203.733L188.692,51.769h-.26l-14.977,52.409H160.586L141.54,35.544h12.476l13.267,55.1h.263l14.974-55.1h12.086l15.1,55.1h.263l13.267-55.1h12.346ZM243.9,17.09a7.587,7.587,0,1,1,7.555,7.552A7.543,7.543,0,0,1,243.9,17.09Zm1.317,18.454h12.543v68.633H245.213Zm94.461,10.117V35.544H326.409V19.126H313.927V35.544H289.951V29.5c.064-6.108,2.426-8.67,8.078-8.67a31.087,31.087,0,0,1,5.187.462V11.438a43.782,43.782,0,0,0-6.631-.526c-13.4,0-19.049,5.585-19.049,18.391v6.238h-9.588V45.658h9.588v58.517h12.479V45.661H313.93V86.18c0,13.267,5.054,18.388,18.191,18.388a43.838,43.838,0,0,0,7.489-.523V93.8a44.356,44.356,0,0,1-4.73.329c-5.845,0-8.471-2.758-8.471-8.933V45.661Z" transform="translate(120.445 14.785)" fill="#101d36"/>
</svg>
