<svg xmlns="http://www.w3.org/2000/svg" width="74.463" height="74.414" viewBox="0 0 74.463 74.414">
  <g id="checkmark.circle" transform="translate(-522.485 -623.539)">
    <g id="Symbols">
      <g id="Ultralight-S" transform="translate(515.649 696)">
        <path id="Path_13" data-name="Path 13" d="M44.043,1.953A36.2,36.2,0,0,0,58.472-.928,37.59,37.59,0,0,0,70.337-8.96a37.933,37.933,0,0,0,8.057-11.865A35.938,35.938,0,0,0,81.3-35.254a35.938,35.938,0,0,0-2.905-14.429,37.933,37.933,0,0,0-8.057-11.865A37.591,37.591,0,0,0,58.472-69.58a36.2,36.2,0,0,0-14.429-2.881,36.254,36.254,0,0,0-14.4,2.881,37.228,37.228,0,0,0-11.865,8.032A38.139,38.139,0,0,0,9.741-49.683,35.937,35.937,0,0,0,6.836-35.254,35.937,35.937,0,0,0,9.741-20.825,38.139,38.139,0,0,0,17.773-8.96,37.226,37.226,0,0,0,29.639-.928,36.253,36.253,0,0,0,44.043,1.953Zm0-2.246A34.206,34.206,0,0,1,30.469-3a35.128,35.128,0,0,1-11.157-7.52A35.467,35.467,0,0,1,11.768-21.68,33.941,33.941,0,0,1,9.033-35.254a33.941,33.941,0,0,1,2.734-13.574,35.469,35.469,0,0,1,7.544-11.157A35.129,35.129,0,0,1,30.469-67.5a34.206,34.206,0,0,1,13.574-2.71,34.383,34.383,0,0,1,13.6,2.71A34.77,34.77,0,0,1,68.8-59.985a35.673,35.673,0,0,1,7.52,11.157,33.943,33.943,0,0,1,2.734,13.574,34.206,34.206,0,0,1-2.71,13.574,35.127,35.127,0,0,1-7.52,11.157A35.127,35.127,0,0,1,57.666-3,34.328,34.328,0,0,1,44.043-.293Z" fill="#080b17"/>
        <path id="Path_14" data-name="Path 14" d="M39.99-17.09a1.537,1.537,0,0,0,1.123-.586L61.621-49.463a1.536,1.536,0,0,0,.171-.366,1.315,1.315,0,0,0,.073-.415,1,1,0,0,0-.366-.733,1.107,1.107,0,0,0-.757-.342,1.362,1.362,0,0,0-1.025.586L39.941-20.068,28.857-32.861a1.581,1.581,0,0,0-.488-.415,1.184,1.184,0,0,0-.537-.122,1.116,1.116,0,0,0-.781.317,1.052,1.052,0,0,0-.342.806,1.677,1.677,0,0,0,.391.928L38.867-17.676a1.983,1.983,0,0,0,.488.44A1.221,1.221,0,0,0,39.99-17.09Z" fill="#080b17"/>
      </g>
    </g>
  </g>
</svg>
