<svg xmlns="http://www.w3.org/2000/svg" width="512" height="350" viewBox="0 0 512 350">
  <g id="email" transform="translate(0 -81)">
    <g id="Group_23" data-name="Group 23">
      <g id="Group_22" data-name="Group 22">
        <path id="Path_128" data-name="Path 128" d="M432.7,317.247l-82.913-97.484,73.645-42.016a15,15,0,1,0-14.865-26.058L256,238.73,103.434,151.689a15,15,0,1,0-14.865,26.058l73.645,42.016L79.3,317.247a15,15,0,1,0,22.852,19.436l86.577-101.792,59.839,34.139a15,15,0,0,0,14.865,0l59.839-34.139,86.577,101.792A15,15,0,1,0,432.7,317.247Z" fill="#c9ebfe"/>
      </g>
    </g>
    <g id="Group_25" data-name="Group 25">
      <g id="Group_24" data-name="Group 24">
        <path id="Path_129" data-name="Path 129" d="M467,81H45A45.051,45.051,0,0,0,0,126V386a45.051,45.051,0,0,0,45,45H467a45.051,45.051,0,0,0,45-45V126A45.051,45.051,0,0,0,467,81Zm15,305a15.017,15.017,0,0,1-15,15H45a15.017,15.017,0,0,1-15-15V126a15.017,15.017,0,0,1,15-15H467a15.017,15.017,0,0,1,15,15Z" fill="#c9ebfe"/>
      </g>
    </g>
  </g>
</svg>
