<svg xmlns="http://www.w3.org/2000/svg" width="497" height="193.275" viewBox="0 0 497 193.275">
  <g id="glasses" transform="translate(-292 -248.362)">
    <g id="Path_1" data-name="Path 1" transform="translate(302.5 205.638)" fill="none">
      <path d="M108.5,42.725C48.577,42.725,0,52.83,0,118S48.577,236,108.5,236,217,183.17,217,118,168.423,42.725,108.5,42.725Z" stroke="none"/>
      <path d="M 108.5 46.72454833984375 C 91.5938720703125 46.72454833984375 78.36431884765625 47.53555297851562 66.86581420898438 49.27677917480469 C 53.35693359375 51.32246398925781 42.50477600097656 54.646240234375 33.68919372558594 59.43804931640625 C 28.99790954589844 61.98805236816406 24.83358764648438 65.00924682617188 21.31193542480469 68.41764831542969 C 17.63877868652344 71.97268676757812 14.51983642578125 76.08940124511719 12.04171752929688 80.65342712402344 C 9.435501098632812 85.45346069335938 7.439559936523438 90.92674255371094 6.109344482421875 96.92124938964844 C 4.709686279296875 103.2287445068359 4 110.3206787109375 4 118 C 4 125.7586212158203 4.71844482421875 133.5108642578125 6.135345458984375 141.0414581298828 C 7.515380859375 148.3758697509766 9.574127197265625 155.5891723632812 12.25447082519531 162.4810485839844 C 14.88450622558594 169.2436218261719 18.13912963867188 175.7650451660156 21.92787170410156 181.8642120361328 C 25.67753601074219 187.900390625 29.98255920410156 193.5752716064453 34.72337341308594 198.7311706542969 C 39.45872497558594 203.8811492919922 44.66749572753906 208.5553588867188 50.20500183105469 212.6239929199219 C 55.78805541992188 216.7260589599609 61.75447082519531 220.2483367919922 67.93853759765625 223.0929870605469 C 74.22969055175781 225.9869384765625 80.81193542480469 228.2092437744141 87.50241088867188 229.6981811523438 C 94.36556243896484 231.2255554199219 101.4301910400391 232 108.5 232 C 115.5698089599609 232 122.6344375610352 231.2255554199219 129.4975891113281 229.6981811523438 C 136.1880645751953 228.2092437744141 142.7703094482422 225.9869384765625 149.0614624023438 223.0929870605469 C 155.2455291748047 220.2483367919922 161.2119445800781 216.7260589599609 166.7949981689453 212.6239929199219 C 172.3325042724609 208.5553588867188 177.5412902832031 203.8811492919922 182.2766265869141 198.7311706542969 C 187.0174407958984 193.5752716064453 191.3224639892578 187.900390625 195.0721282958984 181.8642120361328 C 198.8608703613281 175.7650451660156 202.1154937744141 169.2436218261719 204.7455291748047 162.4810485839844 C 207.4258728027344 155.5891723632812 209.484619140625 148.3758697509766 210.8646545410156 141.0414581298828 C 212.2815551757812 133.5108642578125 213 125.7586212158203 213 118 C 213 110.3206787109375 212.2903137207031 103.2287445068359 210.8906555175781 96.92124938964844 C 209.5604400634766 90.92674255371094 207.5644989013672 85.45346069335938 204.9582824707031 80.65342712402344 C 202.4801635742188 76.08940124511719 199.3612213134766 71.97268676757812 195.6880645751953 68.41764831542969 C 192.1664123535156 65.00924682617188 188.0020904541016 61.98805236816406 183.3108215332031 59.43804931640625 C 174.4952239990234 54.646240234375 163.64306640625 51.32246398925781 150.1341857910156 49.27677917480469 C 138.6356811523438 47.53555297851562 125.4061279296875 46.72454833984375 108.5 46.72454833984375 M 108.5 42.72454833984375 C 168.4229125976562 42.72454833984375 217 52.83039855957031 217 118 C 217 183.1695861816406 168.4229125976562 236 108.5 236 C 48.57708740234375 236 0 183.1695861816406 0 118 C 0 52.83039855957031 48.57708740234375 42.72454833984375 108.5 42.72454833984375 Z" stroke="none" fill="#000"/>
    </g>
    <g id="Path_2" data-name="Path 2" transform="translate(560.5 205.638)" fill="none">
      <path d="M108.5,42.725C168.423,42.725,217,52.83,217,118S168.423,236,108.5,236,0,183.17,0,118,48.577,42.725,108.5,42.725Z" stroke="none"/>
      <path d="M 108.5 46.72457885742188 C 91.5938720703125 46.72457885742188 78.36431884765625 47.53556823730469 66.86581420898438 49.27679443359375 C 53.35693359375 51.32247924804688 42.50477600097656 54.64622497558594 33.68919372558594 59.43806457519531 C 28.99790954589844 61.98806762695312 24.83358764648438 65.00926208496094 21.31193542480469 68.41766357421875 C 17.63877868652344 71.97270202636719 14.51983642578125 76.08941650390625 12.04171752929688 80.6534423828125 C 9.435501098632812 85.45344543457031 7.439559936523438 90.92672729492188 6.109344482421875 96.92123413085938 C 4.709686279296875 103.2287292480469 4 110.3206634521484 4 117.9999847412109 C 4 125.7586059570312 4.71844482421875 133.5108489990234 6.135345458984375 141.0414428710938 C 7.515380859375 148.3758239746094 9.574127197265625 155.5891418457031 12.25447082519531 162.4810180664062 C 14.88450622558594 169.2435913085938 18.13912963867188 175.7650451660156 21.92787170410156 181.8641662597656 C 25.67753601074219 187.9003601074219 29.98255920410156 193.5752258300781 34.72337341308594 198.7311401367188 C 39.45872497558594 203.881103515625 44.66749572753906 208.5553283691406 50.20500183105469 212.6239471435547 C 55.78805541992188 216.7260131835938 61.75447082519531 220.248291015625 67.93850708007812 223.0929412841797 C 74.22969055175781 225.9868774414062 80.81193542480469 228.2091979980469 87.50241088867188 229.6981353759766 C 94.36556243896484 231.2255096435547 101.4301910400391 231.9999389648438 108.5 231.9999389648438 C 115.5698089599609 231.9999389648438 122.6344375610352 231.2255096435547 129.4975891113281 229.6981353759766 C 136.1880645751953 228.2091979980469 142.7703094482422 225.9868774414062 149.0614929199219 223.0929412841797 C 155.2455291748047 220.248291015625 161.2119445800781 216.7260131835938 166.7949981689453 212.6239471435547 C 172.3325042724609 208.5553283691406 177.5412902832031 203.881103515625 182.2766265869141 198.7311401367188 C 187.0174407958984 193.5752258300781 191.3224639892578 187.9003601074219 195.0721282958984 181.8641662597656 C 198.8608703613281 175.7650451660156 202.1154937744141 169.2435913085938 204.7455291748047 162.4810180664062 C 207.4258728027344 155.5891418457031 209.484619140625 148.3758239746094 210.8646545410156 141.0414428710938 C 212.2815551757812 133.5108489990234 213 125.7586059570312 213 117.9999847412109 C 213 110.3206634521484 212.2903137207031 103.2287292480469 210.8906555175781 96.92123413085938 C 209.5604400634766 90.92672729492188 207.5644989013672 85.45344543457031 204.9582824707031 80.6534423828125 C 202.4801635742188 76.08941650390625 199.3612213134766 71.97270202636719 195.6880645751953 68.41766357421875 C 192.1664123535156 65.00926208496094 188.0020904541016 61.98806762695312 183.3108215332031 59.43806457519531 C 174.4952239990234 54.64622497558594 163.64306640625 51.32247924804688 150.1341857910156 49.27679443359375 C 138.6356811523438 47.53556823730469 125.4061279296875 46.72457885742188 108.5 46.72457885742188 M 108.5 42.72457885742188 C 168.4229125976562 42.72457885742188 217 52.83041381835938 217 117.9999847412109 C 217 183.1695404052734 168.4229125976562 235.9999389648438 108.5 235.9999389648438 C 48.57708740234375 235.9999389648438 0 183.1695404052734 0 117.9999847412109 C 0 52.83041381835938 48.57708740234375 42.72457885742188 108.5 42.72457885742188 Z" stroke="none" fill="#000"/>
    </g>
    <path id="Path_3" data-name="Path 3" d="M517.633,312.63s1.945-5.451,11.15-7.268a61.107,61.107,0,0,1,25.667,0c8.943,1.817,7.578,5.451,10.1,7.268" transform="translate(-1.02)" fill="none" stroke="#000" stroke-width="4"/>
    <rect id="Rectangle_1" data-name="Rectangle 1" width="15" height="13" rx="5" transform="translate(292 295)"/>
    <rect id="Rectangle_2" data-name="Rectangle 2" width="15" height="13" rx="5" transform="translate(774 295)"/>
  </g>
</svg>
