<svg xmlns="http://www.w3.org/2000/svg" width="119.289" height="116.348" viewBox="0 0 119.289 116.348">
  <path id="github" d="M59.644,0A59.651,59.651,0,0,0,40.792,116.242c2.977.552,3.942-1.3,3.942-2.868v-11.1c-16.591,3.608-20.045-7.038-20.045-7.038-2.714-6.894-6.625-8.728-6.625-8.728-5.413-3.7.413-3.623.413-3.623,5.989.418,9.141,6.148,9.141,6.148,5.318,9.116,13.952,6.481,17.357,4.955.532-3.852,2.078-6.486,3.787-7.972C35.513,84.5,21.586,79.382,21.586,56.533a23.085,23.085,0,0,1,6.143-16.01c-.616-1.506-2.659-7.575.582-15.786,0,0,5.01-1.6,16.407,6.114a56.533,56.533,0,0,1,29.867,0c11.387-7.714,16.387-6.114,16.387-6.114,3.246,8.216,1.2,14.285.587,15.786A23.023,23.023,0,0,1,97.7,56.533c0,22.908-13.952,27.953-27.233,29.43,2.137,1.849,4.091,5.477,4.091,11.044v16.367c0,1.586.954,3.449,3.981,2.863A59.656,59.656,0,0,0,59.644,0Z" fill="#c9ebfe"/>
</svg>
