<svg xmlns="http://www.w3.org/2000/svg" width="384" height="384" viewBox="0 0 384 384">
  <g id="ig" transform="translate(-64 -64)">
    <path id="Path_126" data-name="Path 126" d="M336,96a80.235,80.235,0,0,1,80,80V336a80.235,80.235,0,0,1-80,80H176a80.235,80.235,0,0,1-80-80V176a80.235,80.235,0,0,1,80-80H336m0-32H176C114.4,64,64,114.4,64,176V336c0,61.6,50.4,112,112,112H336c61.6,0,112-50.4,112-112V176C448,114.4,397.6,64,336,64Z" fill="#c9ebfe"/>
    <path id="Path_127" data-name="Path 127" d="M360,176a24,24,0,1,1,24-24A23.942,23.942,0,0,1,360,176ZM256,192a64,64,0,1,1-64,64,64.059,64.059,0,0,1,64-64m0-32a96,96,0,1,0,96,96A96.025,96.025,0,0,0,256,160Z" fill="#c9ebfe"/>
  </g>
</svg>
